<svg version="1.1" id="Layer_1" xmlns="http://www.w3.org/2000/svg" xmlns:xlink="http://www.w3.org/1999/xlink" x="0px" y="0px"
	 width="100%" viewBox="0 0 1024 1024" enable-background="new 0 0 1024 1024" xml:space="preserve">
<path fill="#000000" opacity="1.000000" stroke="none" 
	d="
M190.799072,621.100098 
	C175.398178,578.486694 169.068466,534.853943 172.049789,490.123718 
	C176.473434,423.753632 198.390411,363.775726 239.534851,311.090759 
	C257.723785,287.800018 279.006378,267.807922 302.585815,250.142960 
	C303.517334,249.445114 304.446625,248.742508 305.343353,248.001419 
	C305.583588,247.802872 305.699463,247.453873 305.927551,247.084747 
	C305.604553,245.105469 303.788361,244.277130 302.499359,243.087952 
	C265.683899,209.122726 270.004456,150.019135 311.520844,121.840973 
	C331.135193,108.528236 353.134949,103.799721 376.553345,104.977013 
	C378.997528,105.099892 380.558411,104.790405 381.904907,102.560181 
	C397.665283,76.456062 421.614746,61.785622 450.512695,54.759125 
	C478.984924,47.836136 506.675385,50.623413 533.007080,63.968037 
	C541.926758,68.488441 549.192932,75.189339 555.362061,82.892563 
	C558.236572,86.481895 560.644714,86.660072 564.648193,85.245140 
	C583.056213,78.739227 601.999207,75.910042 621.118164,81.096329 
	C648.286194,88.466049 668.545776,104.729294 676.543213,132.249039 
	C684.708374,160.345886 678.935730,198.150314 651.763123,219.427124 
	C650.611023,220.329239 649.314331,221.144806 648.763428,222.688950 
	C649.957764,224.563446 651.980835,225.081879 653.682678,226.016434 
	C704.239441,253.779495 746.938171,290.186066 777.190674,339.846863 
	C800.372375,377.900665 817.048157,418.503662 822.516907,463.161957 
	C822.881226,466.137390 823.571045,469.077728 823.296387,472.080872 
	C822.988953,475.442749 822.658142,478.933380 818.233887,479.506104 
	C813.031738,480.179504 808.986267,478.169617 807.849182,473.811951 
	C806.551575,468.839325 805.711365,463.740692 804.810730,458.672241 
	C797.882751,419.682831 783.504211,383.653015 763.094421,349.730438 
	C733.941956,301.276794 692.477295,266.552612 643.427185,239.964325 
	C639.921387,238.063995 636.181580,236.589294 632.519714,234.987396 
	C631.627258,234.597015 630.512756,234.094193 629.669189,234.308334 
	C621.342163,236.422241 613.050720,238.676453 604.402893,240.983276 
	C606.021240,252.370041 607.616333,263.348389 609.124573,274.338623 
	C609.643127,278.117432 610.067993,281.918091 610.310730,285.723114 
	C610.549133,289.458496 612.397888,291.537598 615.722046,293.282745 
	C632.772705,302.234192 646.675110,314.515106 655.643188,331.913635 
	C659.631714,339.651642 661.110657,347.914062 661.277039,356.449768 
	C661.339233,359.638733 661.981445,361.790894 665.287231,362.956451 
	C695.351929,373.556580 705.916565,404.290131 703.729553,429.627136 
	C702.191101,447.449615 695.649902,462.514832 679.796326,472.305786 
	C676.444092,474.376068 677.310730,477.374573 677.713928,480.314636 
	C679.563904,493.804993 681.600769,507.277985 682.424072,520.882019 
	C683.701111,541.985474 680.941345,562.381470 671.713074,581.676208 
	C668.603516,588.177734 664.304932,593.866028 659.564941,600.346985 
	C669.919678,601.408630 678.923279,599.738892 687.305054,594.940674 
	C696.804565,589.502441 703.536743,581.252869 709.652466,572.432434 
	C711.892761,569.201416 712.133667,565.661499 711.083923,561.921082 
	C708.608337,553.099915 706.636780,544.161621 705.345764,535.090454 
	C704.159546,526.755676 703.881165,518.184631 711.837646,512.988281 
	C720.766541,507.156830 730.488953,504.744720 740.316772,511.685791 
	C741.249451,512.344543 742.267395,512.882690 743.497192,513.629517 
	C747.127319,509.911285 749.328918,505.468781 751.701660,501.106171 
	C755.831055,493.513672 759.560730,485.596924 767.902588,481.387939 
	C777.710754,476.439178 788.875061,478.699585 795.725220,487.377472 
	C797.383179,489.477814 798.591064,490.844727 801.819580,489.904022 
	C812.630127,486.754089 823.145203,492.275452 827.246765,502.803223 
	C827.668701,503.886353 828.102295,504.999023 828.280396,506.137146 
	C829.123352,511.523193 831.300049,514.958862 836.694580,518.040527 
	C847.041321,523.951416 849.342651,535.009583 846.793762,545.698730 
	C841.298767,568.743225 832.468445,590.419861 815.024109,607.462708 
	C813.293823,609.153137 812.126526,611.033447 811.358521,613.294067 
	C794.209534,663.769470 766.348145,707.500183 728.082947,744.532410 
	C711.274780,760.799072 692.837463,775.118347 672.534424,786.803589 
	C667.088928,789.937561 663.583435,793.573425 663.680603,799.919983 
	C663.755066,804.778748 660.877502,807.412354 657.241638,809.808960 
	C644.433716,818.251465 630.087158,823.247620 615.728882,828.064453 
	C589.906860,836.727234 563.299194,841.706604 536.210876,844.493835 
	C504.200806,847.787354 472.416504,846.037964 440.674316,841.492249 
	C411.125916,837.260620 381.891479,831.744446 353.864471,821.087952 
	C349.820709,819.550415 345.871124,817.760071 341.906891,816.020691 
	C340.196716,815.270447 338.338135,814.227295 338.210785,812.261597 
	C337.916168,807.713440 335.543579,807.701477 331.828156,808.224243 
	C310.373474,811.242920 291.796539,804.939331 277.070221,789.178223 
	C268.067108,779.542480 263.924957,768.217529 271.898315,755.540344 
	C273.016327,753.762817 272.533844,752.477356 271.219177,751.127319 
	C265.806915,745.569275 261.833221,739.074768 258.598907,732.048584 
	C257.716858,730.132507 256.183807,728.460205 254.738403,726.867615 
	C226.613907,695.880737 205.691452,660.539978 190.799072,621.100098 
M687.661621,415.039520 
	C686.770447,409.222412 684.796692,403.726990 682.317627,398.447083 
	C677.938904,389.121368 671.601929,381.637207 661.794556,377.567841 
	C658.955750,376.389893 657.280273,376.147644 655.790344,379.834381 
	C649.718323,394.859619 639.980530,407.105469 626.608276,416.405914 
	C588.529663,442.889648 545.896179,449.162506 500.864716,444.803894 
	C488.953827,443.651062 477.249969,440.473877 465.249359,440.435425 
	C433.132904,440.332550 402.583191,447.998413 373.089783,460.170288 
	C355.542114,467.412170 339.774811,477.572205 325.880829,490.588745 
	C323.329254,492.979095 321.843811,495.710266 321.162140,499.128937 
	C319.433044,507.800598 318.739441,516.579224 317.869629,525.357727 
	C314.974457,554.578125 325.025208,578.940552 346.493896,598.215149 
	C376.911133,625.523682 414.462402,635.810669 453.908936,640.580078 
	C466.108795,642.055237 478.466736,642.169922 490.715851,643.302063 
	C514.060547,645.459656 537.286316,645.013245 560.248535,640.104309 
	C589.277893,633.898193 615.519775,621.737122 637.603577,601.612732 
	C649.706482,590.583740 659.580811,577.830750 663.087402,561.308716 
	C664.745422,553.496460 665.498047,545.514709 665.728210,537.520020 
	C666.320068,516.969238 663.793030,496.631378 661.154297,476.325623 
	C660.484436,471.170410 661.128662,467.662476 666.039551,464.658173 
	C677.028687,457.935516 683.918823,448.043671 686.796570,435.307922 
	C688.256836,428.845520 688.169067,422.433472 687.661621,415.039520 
M311.603760,227.890793 
	C324.600983,239.869080 340.130615,244.480652 357.532074,243.820404 
	C360.487976,243.708252 361.775635,242.563766 361.682190,239.597015 
	C361.577362,236.268021 361.906311,232.912323 361.620605,229.605042 
	C361.163086,224.308990 363.443604,221.111816 368.285034,219.258224 
	C373.527374,217.251114 378.678375,215.005432 383.750061,212.912949 
	C383.666870,212.281967 383.706116,212.060425 383.613739,211.960419 
	C382.827972,211.109665 382.021393,210.278000 381.215332,209.446152 
	C373.445587,201.427872 369.705719,192.066025 371.545929,180.788788 
	C371.883759,178.718323 372.081512,176.645309 374.826233,176.659668 
	C377.497498,176.673630 378.622498,178.414154 378.923920,180.819290 
	C379.068573,181.973297 378.997040,183.154205 379.138458,184.308823 
	C380.183807,192.843628 384.176758,198.917862 392.263885,202.873459 
	C406.623901,209.897247 421.161835,209.763550 436.052917,205.657166 
	C443.105743,203.712311 450.039612,201.326218 457.117523,199.486984 
	C460.341156,198.649323 463.702637,197.354828 467.219482,198.500641 
	C466.465637,201.967133 466.162384,202.376617 462.459534,205.120819 
	C452.336914,212.622604 440.716064,217.056992 428.579895,219.164963 
	C413.278870,221.822693 398.292084,225.026428 384.008789,231.287476 
	C380.455566,232.845032 378.841492,234.618469 379.064270,238.681534 
	C380.012360,255.972961 380.651367,273.281158 381.470947,290.580048 
	C381.554932,292.353149 381.459503,294.265228 382.600067,295.659363 
	C450.524506,271.816742 519.095703,258.849091 589.971252,280.947754 
	C591.413452,279.092651 590.829651,277.393494 590.644104,275.800598 
	C588.645508,258.643433 586.543945,241.498108 584.599365,224.334961 
	C584.134521,220.232330 581.959778,218.363968 578.104370,217.343353 
	C558.612122,212.183258 539.202454,206.645767 518.675049,208.261490 
	C515.991089,208.472733 513.312012,208.011932 510.854523,206.933090 
	C508.331146,205.825363 506.944153,203.658875 507.307526,200.914734 
	C507.704651,197.915375 510.151642,197.491806 512.626038,197.676224 
	C516.179077,197.941025 519.636841,197.225586 523.009460,196.456528 
	C541.061707,192.340088 558.887329,187.730255 568.651245,169.511826 
	C569.222595,168.445679 570.197815,167.662827 571.535461,168.053604 
	C573.118774,168.516159 573.249878,169.917206 573.343750,171.273010 
	C573.779114,177.563568 571.638794,183.067535 568.057373,188.075790 
	C566.360352,190.448944 564.457825,192.675140 562.315857,195.389343 
	C571.819092,198.139679 580.729248,200.705200 589.631409,203.298203 
	C599.970703,206.309845 600.812378,207.123062 601.253906,217.643021 
	C601.454041,222.411774 603.544617,223.139542 607.665833,222.375320 
	C639.590942,216.455154 659.897400,187.544083 662.179260,164.569504 
	C665.269043,133.460602 647.105652,103.165894 609.047180,97.365326 
	C594.791382,95.192581 581.298889,98.637505 568.019897,103.281502 
	C555.534424,107.648003 555.393799,107.845337 546.513672,97.791229 
	C536.213623,86.129562 523.868958,77.810997 508.981995,73.234192 
	C487.151978,66.522858 465.395233,67.839912 444.201996,75.234657 
	C422.227753,82.901901 404.486542,96.300720 394.739380,118.207703 
	C392.458771,123.333389 389.863342,124.454750 384.504028,123.878853 
	C363.379059,121.608864 343.122925,123.883949 324.335693,135.274918 
	C290.734375,155.647842 284.176239,199.904083 311.603760,227.890793 
M375.374878,347.662506 
	C389.666046,345.512482 404.204010,344.909180 418.182709,340.801361 
	C446.989899,332.336029 475.764984,323.814697 499.258179,303.713806 
	C501.075439,302.158966 503.289154,300.863068 505.484436,303.049072 
	C507.828552,305.383331 505.972809,307.496643 504.473938,309.148071 
	C498.072998,316.200623 491.106812,322.621582 482.879578,327.559601 
	C461.761719,340.234650 439.396362,349.968201 415.556305,356.255432 
	C398.605438,360.725800 381.069336,361.774384 363.918060,365.155426 
	C343.440460,369.192169 324.185181,375.468079 309.415405,391.128082 
	C294.996826,406.415649 284.828125,423.686371 287.302795,445.736023 
	C288.823608,459.286804 293.637909,471.225281 306.566254,478.301331 
	C311.170319,480.821198 315.070709,481.744537 318.663391,476.756683 
	C319.893738,475.048584 321.837982,473.835663 323.518738,472.473877 
	C340.877869,458.408844 361.380432,450.432312 381.760590,442.104309 
	C413.591125,429.097290 446.468262,424.703796 480.599152,428.554626 
	C495.808716,430.270691 511.067688,431.980194 526.346558,432.543121 
	C546.068054,433.269714 565.622803,430.861328 584.588684,425.227875 
	C605.733337,418.947235 623.957886,407.930145 636.699097,389.469940 
	C645.036133,377.390808 649.903870,364.097473 646.796082,348.995026 
	C644.655518,338.592316 638.979309,330.353485 631.035767,323.572113 
	C625.683044,319.002502 620.370544,314.342743 613.729187,310.578491 
	C613.720825,314.707855 615.655823,317.963379 614.671021,321.191864 
	C609.545288,337.996033 602.675476,353.688293 587.317200,364.048950 
	C566.691772,377.962799 543.021729,383.558716 519.360779,389.164825 
	C516.450745,389.854309 513.170715,389.846832 510.565460,387.386200 
	C512.019958,384.602203 514.591614,384.549164 516.652222,383.744415 
	C534.147583,376.911713 552.324158,371.994263 569.123230,363.153412 
	C584.514038,355.053711 594.969971,343.111298 602.071960,327.641235 
	C604.716309,321.881165 603.816650,316.529327 600.584778,311.509430 
	C594.942505,302.745544 588.028015,295.687592 576.883118,294.275635 
	C564.847168,292.750763 552.875916,290.701538 540.830078,289.272095 
	C531.098511,288.117279 521.445129,285.887360 511.544708,286.543427 
	C503.408905,287.082581 495.267426,287.574890 487.146423,288.291168 
	C471.907440,289.635315 456.516327,289.868286 441.497101,292.935608 
	C418.723938,297.586487 398.086121,307.729401 378.041382,319.107178 
	C368.328064,324.620667 358.786713,330.483093 351.137695,338.819305 
	C347.135864,343.180725 343.442322,347.814484 341.026062,354.218567 
	C352.733093,351.940948 363.611816,349.824493 375.374878,347.662506 
M234.427032,671.106567 
	C239.148453,679.463623 245.032623,686.984497 251.008911,695.155090 
	C254.888611,671.268372 264.262207,651.102356 282.590851,636.014160 
	C295.885986,625.069641 311.592529,618.496155 327.768005,613.012024 
	C330.211731,612.183533 332.895142,611.874023 335.215057,610.087830 
	C330.966644,605.192078 325.939636,601.528809 322.246918,596.573120 
	C304.699493,573.024048 299.232758,546.421692 302.246857,517.682068 
	C303.038910,510.129974 304.045013,502.600342 304.937866,495.184601 
	C291.785492,489.102783 287.869385,486.599030 282.624634,478.552063 
	C271.620789,461.668915 266.859589,443.332428 272.235260,423.417389 
	C279.239197,397.470215 294.412567,377.503510 317.652222,363.866608 
	C320.496613,362.197510 322.139343,360.212250 322.598480,356.952637 
	C323.915070,347.606079 328.425995,339.746002 334.069916,332.357697 
	C341.405457,322.754913 351.349182,316.306793 361.071777,309.591370 
	C363.805573,307.703125 364.878296,305.642303 364.833679,302.168030 
	C364.683807,290.501282 362.994232,278.954071 362.565491,267.321625 
	C362.427338,263.573517 360.833527,262.153931 356.976196,262.185242 
	C347.800995,262.259766 338.625671,261.402588 329.981018,258.231964 
	C325.643127,256.640930 322.450653,257.295410 318.966187,259.888580 
	C309.083588,267.243256 299.077881,274.388489 289.833588,282.607422 
	C260.698792,308.510681 237.548721,338.960785 220.227875,373.788788 
	C204.669830,405.072266 195.429352,438.226471 190.936920,472.912567 
	C187.420761,500.060852 187.714920,527.053833 191.551224,554.005981 
	C197.496414,595.774414 211.855850,634.584656 234.427032,671.106567 
M348.646301,634.724365 
	C347.500031,632.320435 346.151154,629.988586 345.262756,627.492859 
	C344.316589,624.834900 342.960754,624.271790 340.370575,625.317017 
	C335.281097,627.370789 330.124420,629.267334 324.949066,631.097412 
	C301.847321,639.266357 283.866211,652.997498 273.382538,675.964294 
	C263.345459,697.952942 266.025726,721.713562 281.489868,739.473389 
	C284.497009,742.926941 286.795898,743.215576 290.664215,740.463562 
	C303.723175,731.173401 315.275574,720.078674 327.803619,710.166260 
	C328.571320,709.558960 329.391876,708.905762 329.316528,707.549438 
	C327.476929,704.687012 324.908569,702.323547 321.946716,700.450806 
	C318.816010,698.471375 316.436768,696.040955 318.614838,692.327271 
	C320.727814,688.724609 324.223389,687.882935 328.179718,689.545410 
	C331.566956,690.968811 334.965210,692.447998 337.791016,694.799561 
	C340.768158,697.277161 343.273438,696.989990 346.242859,694.726074 
	C351.138000,690.994080 356.245239,687.537415 361.306061,684.026550 
	C365.118408,681.381775 367.560730,684.216675 369.883362,686.518860 
	C372.530182,689.142334 369.687897,690.688232 368.248138,692.234009 
	C364.390045,696.376404 360.405609,700.403137 356.409607,704.414246 
	C354.636475,706.194092 353.900574,707.867615 355.988190,709.932068 
	C361.100128,714.987122 365.473969,720.647827 369.465302,726.612427 
	C370.556366,728.242798 372.287933,728.851013 373.984802,729.560608 
	C396.541992,738.994751 420.328400,743.844849 444.183228,748.462524 
	C447.917816,749.185425 449.797241,747.811829 450.452118,744.117737 
	C453.351257,727.764099 459.523346,712.509888 466.266937,697.451599 
	C466.791992,696.279236 467.596954,695.098022 466.784180,693.390991 
	C462.186188,691.414001 456.988495,691.170959 451.957184,690.302368 
	C430.400787,686.581177 409.037506,682.174988 389.742798,671.220093 
	C373.706177,662.115051 358.646698,651.781677 348.646301,634.724365 
M498.963470,768.343384 
	C495.403015,768.563538 491.744110,767.398254 487.770599,769.021729 
	C490.254089,773.249512 492.960236,777.036621 494.780762,781.210083 
	C496.288574,784.666748 496.511902,788.617065 492.060577,790.582397 
	C487.395660,792.642029 485.898895,789.381287 484.574310,785.836609 
	C481.803436,778.421448 476.011810,773.170166 470.814117,767.615723 
	C468.545776,765.191589 464.778717,764.987488 461.401520,766.171936 
	C459.433411,766.862183 459.277588,768.581909 459.498138,770.318237 
	C461.313324,784.608276 459.996460,798.944946 460.098450,813.257324 
	C460.222412,830.652588 459.746307,828.904419 476.103638,829.535767 
	C514.690796,831.025208 552.985657,828.052795 590.612427,818.700012 
	C608.428833,814.271484 625.839539,808.668823 642.598999,801.105347 
	C646.301575,799.434387 648.804871,797.433289 649.362000,792.865234 
	C650.832214,780.809692 653.060242,768.847290 654.567932,756.795410 
	C655.249329,751.347961 657.070496,745.817017 655.358154,740.294373 
	C652.938721,739.862366 651.519958,741.192871 649.998535,742.125061 
	C638.774536,749.002014 626.656616,753.439209 613.659241,755.448547 
	C595.565796,758.245667 577.413879,760.699951 559.379456,763.833313 
	C539.643494,767.262268 519.923218,770.141296 498.963470,768.343384 
M721.583252,528.352112 
	C720.533569,534.523682 722.442871,540.363708 724.381714,545.938293 
	C730.960144,564.852478 729.228271,581.652771 713.332214,595.439819 
	C712.004333,596.591614 711.271912,597.754517 712.528564,599.709229 
	C721.207886,613.210693 730.635864,626.105896 742.761475,636.758606 
	C750.207703,643.300354 750.453857,643.265747 756.731201,635.601562 
	C762.576355,628.464966 767.775208,620.949585 767.127808,610.993896 
	C767.000916,609.042419 768.387512,607.920776 770.056641,607.395996 
	C772.269470,606.700256 774.536377,606.122620 776.819336,605.712463 
	C794.737671,602.493347 808.170593,593.183105 816.104126,576.589294 
	C820.412415,567.578003 824.449158,558.435364 828.511719,549.308960 
	C829.728577,546.575195 830.698547,543.710693 830.759155,540.654297 
	C830.812561,537.963318 831.006592,535.109497 827.805481,533.914978 
	C824.652588,532.738464 822.921509,534.802612 821.166931,536.982178 
	C816.886963,542.298706 812.499573,547.513794 809.064270,553.465027 
	C807.117676,556.837280 804.344116,558.529602 800.294861,556.611450 
	C794.746155,553.982971 793.803650,551.632874 797.278992,546.537659 
	C802.359436,539.089172 807.041809,531.453430 810.841614,523.265015 
	C812.587280,519.503052 813.313721,515.655518 812.603210,511.610168 
	C812.186707,509.239014 811.103027,507.102966 808.502197,506.432190 
	C806.133057,505.821106 804.239502,507.005493 802.714600,508.624268 
	C801.585144,509.823334 800.589233,511.212769 799.808044,512.664917 
	C794.881104,521.823059 787.388245,529.136780 781.808960,537.826721 
	C780.038940,540.583435 777.644287,540.815857 774.975403,538.852600 
	C771.485962,536.285767 771.057922,533.444092 773.637451,529.893799 
	C778.677795,522.956665 782.564636,515.424438 784.290100,506.953857 
	C785.198364,502.495300 783.494202,499.220947 779.293213,497.182007 
	C775.161072,495.176453 772.523865,497.383453 770.374329,500.329010 
	C768.322937,503.140320 766.595154,506.208832 764.928406,509.274811 
	C762.467041,513.802612 761.040222,519.250488 757.616272,522.808777 
	C753.101013,527.501160 752.948120,532.107849 753.943909,537.790466 
	C754.836426,542.883850 754.798279,548.117676 752.136414,552.890747 
	C751.314026,554.365417 750.278076,555.872681 748.439270,555.927185 
	C746.393250,555.987854 745.755676,554.133118 745.154358,552.622498 
	C744.046997,549.840332 743.173767,546.966064 742.124084,544.159668 
	C739.914185,538.251343 738.339783,532.025452 733.931702,527.181946 
	C729.966858,522.825439 725.503662,522.991394 721.583252,528.352112 
M690.180969,611.889343 
	C680.724548,615.810120 670.784241,616.307678 660.742859,615.992554 
	C657.044128,615.876465 654.772644,616.958374 654.640625,621.218872 
	C654.374023,629.828735 650.221924,636.868591 644.613525,642.981567 
	C631.944519,656.790405 617.831848,668.887939 601.421326,678.135803 
	C600.010681,678.930786 598.357178,679.500671 597.406860,681.808044 
	C608.362122,699.317322 614.913025,718.553833 613.010437,740.161072 
	C619.035889,739.836243 623.843872,738.486145 628.483704,736.788269 
	C638.183228,733.239075 647.786865,729.434814 655.065308,721.569580 
	C656.992493,719.487061 657.841797,717.287598 657.775940,714.394287 
	C657.627136,707.857239 656.533020,701.483948 654.966919,695.185913 
	C653.305542,688.504089 653.310974,681.666382 652.872009,674.879700 
	C652.705444,672.305115 652.934204,668.930420 655.972717,668.257263 
	C659.217468,667.538269 661.012024,670.279175 662.034790,673.087036 
	C663.058228,675.896484 664.133301,678.732117 664.702454,681.650574 
	C665.424500,685.353455 667.132385,686.537781 670.946289,685.936157 
	C694.660217,682.195618 715.864746,672.915466 734.534851,657.801147 
	C737.764282,655.186768 737.589722,653.124878 734.721619,650.173462 
	C724.039734,639.181091 714.250183,627.400879 704.877014,615.275818 
	C699.119751,607.828308 699.116333,607.830933 690.180969,611.889343 
M447.012909,807.456116 
	C446.667358,795.477844 447.263214,783.483826 445.948059,771.514832 
	C445.436554,766.859802 443.678741,764.269836 438.970795,763.316833 
	C426.238373,760.739624 413.745575,757.186646 401.220581,753.752502 
	C393.604889,751.664429 385.815430,750.210144 378.298401,748.514954 
	C377.813049,749.357300 377.547241,749.626892 377.504395,749.928162 
	C377.364197,750.912903 377.271698,751.907532 377.219971,752.901428 
	C376.301178,770.555237 369.276459,785.355225 356.403595,797.412354 
	C351.393341,802.105103 351.788177,804.291382 358.281708,806.522278 
	C368.526001,810.041748 379.005219,812.667786 389.587524,814.998901 
	C394.334839,816.044678 396.458160,814.548096 397.418152,810.146667 
	C399.331696,801.373596 402.458435,792.884338 403.533997,783.909851 
	C403.703064,782.499451 403.611816,780.648438 405.650879,780.445984 
	C407.351318,780.277161 408.408539,781.556641 409.201447,782.828918 
	C411.143524,785.945251 411.401581,789.385376 410.898102,792.948364 
	C409.895142,800.046387 409.507385,807.191101 409.136932,814.346497 
	C408.924866,818.442749 410.498383,820.536194 414.501678,821.255188 
	C423.013397,822.783813 431.486237,824.528137 439.992188,826.090576 
	C445.470642,827.096863 447.704590,825.077820 447.525879,819.404724 
	C447.410645,815.747131 447.185516,812.092896 447.012909,807.456116 
M681.250305,760.716919 
	C731.266663,725.416809 766.296082,678.460388 789.513611,622.190613 
	C785.646484,622.999146 781.036621,620.630798 779.074524,626.027832 
	C771.902893,645.755249 757.790588,659.961487 741.442627,672.194031 
	C721.523621,687.098755 699.252869,696.770020 674.712463,701.053101 
	C671.903748,701.543335 669.886902,702.088745 670.693787,705.685242 
	C674.974121,724.763672 671.954712,743.754456 669.876343,762.752319 
	C669.706543,764.304932 668.665039,765.984802 670.705994,767.457825 
	C674.381592,766.015808 677.427490,763.411865 681.250305,760.716919 
M361.896637,757.472595 
	C362.453949,754.857788 362.680206,752.238831 362.531433,749.545044 
	C361.766327,735.690430 353.212097,726.506531 343.715942,717.857178 
	C341.820618,716.130798 340.167114,716.645264 338.463226,718.184631 
	C335.631836,720.742493 332.875092,723.410889 329.847046,725.717957 
	C321.377869,732.170349 312.717102,738.372253 304.280914,744.866455 
	C301.442749,747.051331 298.144409,748.896729 296.226227,752.755066 
	C300.218536,756.736633 305.673340,758.090515 310.375763,760.710876 
	C312.801239,762.062439 315.830139,763.253662 314.716553,766.982300 
	C313.703491,770.374390 311.072693,771.342468 307.718323,771.335022 
	C301.484558,771.321106 296.124817,768.623779 290.683594,766.134583 
	C286.090393,764.033325 283.959778,765.508728 284.203064,770.635010 
	C284.303162,772.744690 285.290619,774.442261 286.476074,776.072449 
	C299.093964,793.422974 332.225861,801.750610 350.375244,782.323608 
	C356.725494,775.526306 359.870239,767.209351 361.896637,757.472595 
M459.799713,673.262512 
	C458.675262,672.934937 457.494324,672.659119 457.756836,670.918274 
	C459.721222,669.262573 462.144043,669.940613 464.374725,669.885376 
	C474.923218,669.624329 485.139465,667.334351 495.351929,664.991089 
	C497.303528,664.543213 498.895111,663.657471 498.580383,661.323547 
	C498.260406,658.950928 496.268616,659.331299 494.666687,659.299133 
	C492.003479,659.245544 489.337555,659.341187 486.673737,659.304077 
	C459.727936,658.928528 433.291504,655.132324 407.518036,647.181946 
	C391.949646,642.379517 376.968781,636.035034 362.011230,628.915100 
	C362.361755,630.984253 363.784058,631.952087 364.750244,633.183838 
	C375.446777,646.820251 389.813110,655.670044 405.351410,662.247925 
	C426.273102,671.104675 448.394379,675.973145 470.962250,678.635620 
	C478.976929,679.581055 486.905365,679.103638 494.674774,676.748413 
	C496.392242,676.227844 498.236694,675.902710 498.279938,672.421997 
	C485.559662,675.951904 473.079010,675.551941 459.799713,673.262512 
M481.948944,699.427979 
	C473.479492,710.800598 470.311798,724.256592 466.880829,737.621094 
	C466.186310,740.326477 466.794098,741.677307 469.777893,741.924133 
	C481.290283,742.876648 492.491669,741.894653 502.493042,735.608643 
	C513.118103,728.930664 519.040710,719.101562 520.549500,706.589844 
	C520.874817,703.892578 519.460022,702.639099 517.461670,701.511902 
	C515.095154,700.177124 513.692139,701.539124 512.486572,703.270264 
	C510.587006,705.997803 508.567993,708.672852 506.979279,711.577820 
	C505.255310,714.729980 503.083099,715.396240 500.012146,713.794861 
	C496.692566,712.063965 496.710541,709.463074 498.334808,706.658569 
	C500.082733,703.640442 502.220215,700.839661 503.858948,697.768616 
	C505.955933,693.838928 504.008362,689.719971 500.173798,690.324707 
	C493.499725,691.377258 486.548309,692.381653 481.948944,699.427979 
M546.940796,725.601318 
	C542.483215,722.455933 538.672058,718.579346 534.590332,713.657227 
	C528.035339,731.065979 518.063965,744.591492 502.105865,753.476379 
	C533.538879,756.510620 563.327332,749.183044 593.395447,742.963501 
	C576.820618,740.338074 561.082825,736.159363 546.940796,725.601318 
M568.168030,700.901978 
	C567.219604,704.221436 565.038452,704.467041 562.365723,703.113953 
	C560.737061,702.289368 559.225586,701.235840 557.644531,700.314270 
	C553.292847,697.777832 550.184875,700.878296 547.451782,703.195496 
	C544.766602,705.472168 547.727539,707.726746 549.001770,709.589844 
	C550.195312,711.335083 551.862244,712.856018 553.578186,714.128784 
	C565.710815,723.128052 579.877502,725.670227 594.466614,726.704468 
	C598.682007,727.003235 597.877319,723.925964 597.388794,721.539185 
	C595.028137,710.008301 590.683411,699.306458 584.195190,689.423279 
	C580.975830,684.519348 577.103455,681.221741 571.033203,680.781982 
	C568.405457,680.591614 565.588867,679.285034 564.276123,682.840820 
	C562.999939,686.297729 559.447510,689.577759 563.886292,693.492920 
	C565.842163,695.218079 568.927063,696.604248 568.168030,700.901978 
M538.669006,662.259460 
	C535.400452,665.895996 533.311035,665.890259 530.583862,661.861389 
	C529.302368,659.968262 528.230957,658.202332 525.602844,658.600647 
	C522.653992,659.047424 519.715088,659.560730 516.763977,659.991394 
	C512.931824,660.550720 511.504852,663.006592 511.361816,666.590454 
	C511.099274,673.167969 512.931030,679.151794 517.053772,684.205811 
	C522.328735,690.672363 529.392029,693.124146 537.533875,691.529724 
	C544.787415,690.109131 549.669128,685.507568 552.050720,678.556580 
	C553.641174,673.914612 553.114197,669.014099 552.743591,664.223206 
	C552.182495,656.969177 548.252747,655.071960 542.005676,658.964722 
	C540.909119,659.648071 540.076843,660.755493 538.669006,662.259460 
M574.133301,656.981934 
	C579.912170,659.296814 586.418518,658.057678 593.660645,660.353455 
	C584.299133,666.908203 574.545532,662.508728 565.988220,665.405273 
	C572.098083,667.488770 578.336426,669.581177 584.596741,667.731262 
	C606.302490,661.317261 622.332031,647.168335 635.355774,629.215210 
	C636.536804,627.587158 638.184753,625.854248 636.865967,622.013123 
	C614.824524,637.780762 590.324158,647.405823 563.717163,654.289490 
	C567.332581,657.788818 570.514526,656.258301 574.133301,656.981934 
z"/>
<path fill="#000000" opacity="1.000000" stroke="none" 
	d="
M639.103577,891.287842 
	C642.687561,880.659607 646.224976,870.430237 649.509949,860.120422 
	C650.538818,856.891357 652.243103,855.504395 655.641541,855.667114 
	C659.630920,855.858276 663.647278,855.850342 667.634399,855.622253 
	C671.620300,855.394409 672.834290,857.263367 672.944519,860.962463 
	C673.276672,872.110535 673.807983,883.253052 674.311218,894.395508 
	C674.904175,907.525818 675.511475,920.655762 676.188110,933.781921 
	C676.505859,939.945251 676.213440,940.346436 670.097046,940.389709 
	C656.807434,940.483704 657.176208,940.465637 656.520142,927.075867 
	C655.994202,916.339539 655.680725,905.592834 654.703552,894.731750 
	C650.874817,905.651367 646.642700,916.451965 643.374695,927.536926 
	C641.531738,933.788208 637.458557,933.234314 632.693359,933.510315 
	C627.846741,933.791077 626.882996,930.879272 625.762390,927.394775 
	C622.303101,916.638000 618.711304,905.924683 613.686340,895.515991 
	C613.207275,908.156921 612.681580,920.796326 612.267578,933.439392 
	C612.040955,940.360107 612.125977,940.354980 605.235107,940.368042 
	C602.402771,940.373352 599.556213,940.251648 596.741943,940.491516 
	C593.097961,940.802185 592.301941,939.369751 592.480774,935.827637 
	C593.715576,911.379639 594.719788,886.919983 595.780640,862.463318 
	C596.057556,856.078613 596.337769,855.779907 602.763855,855.733398 
	C616.535583,855.633728 616.529724,855.635681 621.070129,868.795288 
	C625.192688,880.743896 629.329834,892.687439 633.711731,905.359497 
	C636.415100,900.665039 637.393066,896.039551 639.103577,891.287842 
z"/>
<path fill="#000000" opacity="1.000000" stroke="none" 
	d="
M180.092010,912.564636 
	C186.429947,910.888000 192.557556,911.926270 199.393219,911.499084 
	C199.798935,919.638000 197.175003,926.102844 192.019196,931.678406 
	C176.937836,947.988098 139.977661,944.931702 131.817337,917.580322 
	C127.694778,903.762512 127.776375,890.003601 133.235199,876.528259 
	C141.905746,855.124695 170.314194,847.668030 188.621033,861.926147 
	C194.257828,866.316345 197.399261,872.248291 199.049194,879.098145 
	C199.851593,882.429504 198.616684,884.207397 195.279724,884.678406 
	C193.961487,884.864441 192.658875,885.158875 191.342911,885.363953 
	C188.067917,885.874146 184.571075,887.306030 181.568924,886.612427 
	C178.033127,885.795532 179.313477,881.227051 177.923691,878.500183 
	C174.348648,871.485779 161.205566,870.820801 155.375168,877.576721 
	C154.302612,878.819580 153.295288,880.262329 152.744003,881.788452 
	C148.818008,892.656921 148.948883,903.726501 152.482864,914.545532 
	C154.706619,921.353455 159.704346,923.961487 166.865280,923.779541 
	C174.100754,923.595703 178.188568,919.726868 180.092010,912.564636 
z"/>
<path fill="#000000" opacity="1.000000" stroke="none" 
	d="
M303.130188,941.384766 
	C297.759979,941.444092 293.705231,939.320374 288.949432,935.145630 
	C288.949432,942.566101 288.938629,948.765259 288.952118,954.964355 
	C288.969757,963.085693 288.976807,963.086853 281.031464,963.102112 
	C269.930420,963.123413 270.016815,963.119629 269.538361,952.347412 
	C268.577515,930.714050 269.250092,909.073425 269.153168,887.436768 
	C269.118408,879.683960 269.297241,879.563721 276.969452,879.719788 
	C281.153595,879.804932 286.363495,877.750793 288.045166,885.144714 
	C294.044495,878.609375 301.191071,877.735718 308.642365,878.900330 
	C319.308929,880.567505 326.388794,888.519592 328.194885,900.643616 
	C329.302948,908.081970 329.257233,915.510498 327.322174,922.892273 
	C324.089111,935.225281 316.383362,941.323303 303.130188,941.384766 
M308.454834,901.282043 
	C305.531036,894.736267 302.015350,892.482788 296.337921,893.515198 
	C291.675751,894.363037 289.222931,897.735901 288.680695,904.343079 
	C288.299866,908.983582 288.148010,913.627808 289.115234,918.247009 
	C290.141785,923.149597 293.035919,925.734192 298.074310,925.974365 
	C303.317474,926.224426 306.883667,924.079407 308.412994,919.209595 
	C310.189148,913.553650 310.284698,907.792664 308.454834,901.282043 
z"/>
<path fill="#000000" opacity="1.000000" stroke="none" 
	d="
M490.554443,938.560181 
	C486.031891,931.376282 481.729614,924.496094 477.453735,917.658020 
	C474.020020,918.558167 474.015686,921.012146 473.963409,923.307617 
	C473.880035,926.967590 473.736328,930.648315 474.020325,934.288879 
	C474.382690,938.934082 472.968903,941.295410 467.893127,940.463013 
	C466.108795,940.170410 464.237915,940.366699 462.407654,940.400208 
	C454.937317,940.536743 454.952789,940.545349 454.954712,933.294617 
	C454.960968,909.657104 454.939941,886.019653 454.963470,862.382141 
	C454.970032,855.803467 455.165405,855.563721 461.673431,855.686218 
	C474.959473,855.936218 473.940735,853.509155 473.870087,867.956421 
	C473.828613,876.440613 473.548889,884.923401 473.448059,893.407654 
	C473.420685,895.710632 473.262146,898.070557 474.518829,900.611755 
	C478.465027,897.259644 480.822540,892.824402 482.915924,888.539368 
	C486.356598,881.496521 491.199036,878.315063 499.085938,879.597351 
	C502.136658,880.093384 505.335480,879.678345 508.193634,879.678345 
	C509.482910,882.512573 507.775177,883.736633 506.691650,885.075928 
	C502.086884,890.767761 497.523010,896.500244 492.707886,902.011414 
	C490.051056,905.052368 490.002228,907.689331 492.350555,910.877686 
	C497.975067,918.513916 503.436829,926.270081 508.956421,933.983459 
	C510.102173,935.584717 511.643158,936.997742 511.532715,940.348450 
	C504.618927,939.532349 497.635651,942.811707 490.554443,938.560181 
z"/>
<path fill="#000000" opacity="1.000000" stroke="none" 
	d="
M404.924194,881.654541 
	C414.907410,877.153564 424.735016,877.633423 434.454651,880.887817 
	C442.142303,883.461975 446.153320,889.426392 446.388580,897.572205 
	C446.604553,905.050171 446.772186,912.530151 446.874481,920.010498 
	C446.918060,923.195007 447.427124,925.977783 449.176636,928.924438 
	C453.125488,935.575439 449.695709,940.960205 442.080933,940.873901 
	C437.010468,940.816467 432.001465,940.584717 428.445557,935.402344 
	C422.452728,940.647522 415.692047,942.746216 408.002930,941.283386 
	C395.921295,938.984985 389.078918,926.673096 393.937531,915.907288 
	C396.650940,909.894653 401.585846,906.717590 407.886200,905.884277 
	C412.652100,905.253967 417.511444,905.352234 422.323395,905.037476 
	C424.526154,904.893372 427.404541,905.757385 428.205566,902.661255 
	C428.945404,899.801758 428.272552,896.973511 426.100891,894.821411 
	C423.169067,891.916260 416.425323,892.168945 414.599640,895.801758 
	C412.588196,899.804382 409.686005,900.252930 406.010468,900.020264 
	C404.683350,899.936218 403.346985,900.001404 402.014893,899.992676 
	C395.186371,899.948120 394.107910,898.471680 396.208832,891.954468 
	C397.652679,887.475586 400.415680,884.063660 404.924194,881.654541 
M417.298676,917.471863 
	C413.531616,918.326965 411.158325,920.480652 412.350403,924.490417 
	C413.497925,928.350220 416.884399,928.975586 420.406281,928.401306 
	C423.264832,927.935303 425.750549,926.598145 427.223206,923.952820 
	C429.299164,920.223755 427.795990,917.543396 423.580322,917.395142 
	C421.768372,917.331360 419.951691,917.401855 417.298676,917.471863 
z"/>
<path fill="#000000" opacity="1.000000" stroke="none" 
	d="
M736.435303,924.177246 
	C738.923157,928.283447 740.308411,932.197449 739.424072,936.733643 
	C739.124878,938.267944 738.977539,939.598755 737.202759,940.217224 
	C731.486633,942.209045 722.206055,939.876770 718.239685,935.054443 
	C711.673157,941.796143 703.715027,943.166992 694.969055,940.333191 
	C686.064026,937.447876 681.559021,929.813416 682.742798,919.948853 
	C683.716980,911.830750 689.714661,906.486450 698.897461,905.740112 
	C703.377380,905.375916 707.876343,905.225098 712.369385,905.046387 
	C717.863831,904.827637 719.837585,901.225220 717.040100,896.431824 
	C714.774902,892.550537 706.825134,891.186096 705.003906,895.020081 
	C702.139648,901.050049 697.484375,900.002380 692.809387,900.023499 
	C684.437805,900.061279 683.113525,898.051025 686.497803,890.175354 
	C689.691162,882.743835 696.251831,879.744995 703.572693,878.850769 
	C709.630676,878.110901 715.833069,878.263611 721.876587,880.129944 
	C731.120972,882.984680 736.066345,889.046021 736.279602,898.762024 
	C736.462402,907.091187 736.369934,915.426453 736.435303,924.177246 
M714.141602,917.381226 
	C711.510742,917.477173 708.826477,917.281433 706.263916,917.750488 
	C703.664734,918.226135 701.768066,920.047791 701.561829,922.831177 
	C701.339844,925.827087 703.508484,927.166077 705.976074,928.035034 
	C709.500061,929.276123 715.276611,927.516113 716.891724,924.282227 
	C718.159241,921.744385 719.789307,918.521057 714.141602,917.381226 
z"/>
<path fill="#000000" opacity="1.000000" stroke="none" 
	d="
M883.773254,940.471558 
	C879.412720,940.404541 876.116516,939.235352 874.201904,934.560425 
	C869.153015,940.652527 862.719543,942.011902 855.642578,941.427795 
	C846.361206,940.661560 839.057861,933.823914 838.638916,925.472473 
	C838.085632,914.446533 843.059509,907.912476 853.483704,905.830872 
	C858.429504,904.843262 863.423645,905.102844 868.408264,904.997803 
	C873.724304,904.885864 875.602051,901.522156 872.999756,896.813171 
	C870.679504,892.614624 862.775513,891.197998 860.657227,895.303345 
	C857.616394,901.196838 852.972900,899.929993 848.381836,899.990723 
	C840.933044,900.089172 840.048584,898.651794 842.445068,891.441406 
	C844.544006,885.126587 849.156738,881.540833 855.207642,879.906921 
	C864.287903,877.455139 873.341614,877.955811 882.011597,881.813049 
	C888.680725,884.779968 891.516418,890.393799 891.749634,897.395508 
	C891.959961,903.711121 891.820496,910.037537 891.940002,916.357239 
	C892.026062,920.906433 891.967224,925.113647 894.590088,929.617615 
	C899.002686,937.194946 894.524170,941.528870 883.773254,940.471558 
M870.814941,926.360840 
	C872.309875,925.193665 873.411438,923.744934 873.627686,921.824829 
	C873.855896,919.798584 874.108521,917.547180 871.111389,917.455139 
	C868.127686,917.363525 865.085999,917.199524 862.162903,917.659424 
	C859.347595,918.102478 857.335693,919.923096 857.382385,923.142029 
	C857.426453,926.182007 859.528687,927.469177 862.049377,928.233215 
	C864.977600,929.120789 867.607605,928.048279 870.814941,926.360840 
z"/>
<path fill="#000000" opacity="1.000000" stroke="none" 
	d="
M764.948120,900.344727 
	C763.239136,911.145691 764.327881,921.634888 764.113586,932.093994 
	C763.943420,940.395264 764.079285,940.398132 755.991699,940.412720 
	C744.806702,940.432922 744.828857,940.432922 744.847229,929.009277 
	C744.870483,914.530396 744.980713,900.049683 744.778503,885.573608 
	C744.714783,881.012451 746.261230,879.065002 750.856995,879.656433 
	C752.330139,879.846008 753.858398,879.790649 755.344727,879.658936 
	C759.217041,879.315796 762.392334,879.909851 762.616089,885.852295 
	C768.435486,879.918762 774.815613,878.200928 782.128235,878.574158 
	C793.266663,879.142700 801.012085,886.323608 801.226318,897.513611 
	C801.471619,910.323730 801.230957,923.142578 801.377075,935.955566 
	C801.417480,939.500977 799.994019,940.767517 796.612183,940.475098 
	C794.796143,940.318115 792.949707,940.384338 791.124390,940.484802 
	C782.541626,940.956787 782.565857,940.973572 782.587891,932.163574 
	C782.611145,922.843933 782.647949,913.523560 782.551086,904.204834 
	C782.505188,899.783997 781.422363,895.778748 776.263855,894.761353 
	C771.351318,893.792480 767.359375,895.099365 764.948120,900.344727 
z"/>
<path fill="#000000" opacity="1.000000" stroke="none" 
	d="
M226.426300,922.377197 
	C230.009476,925.675598 233.758652,925.358032 237.354813,923.548584 
	C240.849380,921.790222 241.815720,918.490417 241.785278,914.712891 
	C241.706146,904.893311 241.883194,895.070251 241.693741,885.253723 
	C241.618332,881.345642 242.609146,879.600769 246.957977,879.586243 
	C260.399323,879.541321 260.395905,879.377625 260.395020,892.935608 
	C260.394135,907.083313 260.283569,921.232666 260.475067,935.377808 
	C260.530243,939.454102 259.221863,941.281128 255.068848,940.905334 
	C253.420715,940.756226 251.733139,940.826965 250.080872,940.982117 
	C245.994965,941.365906 242.779144,940.565430 242.607758,935.152039 
	C235.368362,942.187073 227.344955,942.604980 218.963898,939.824463 
	C210.507019,937.018860 206.264069,931.151855 206.143448,922.192322 
	C205.975433,909.711304 206.159729,897.225952 206.051407,884.743652 
	C206.018082,880.902771 207.492569,879.505676 211.397141,879.613831 
	C227.620163,880.063293 224.916031,877.217224 225.140747,893.241394 
	C225.243439,900.563538 225.146683,907.888428 225.202667,915.211548 
	C225.220306,917.521545 224.997726,919.895325 226.426300,922.377197 
z"/>
<path fill="#000000" opacity="1.000000" stroke="none" 
	d="
M565.351257,908.980957 
	C565.989868,913.950317 564.250977,915.642822 559.552185,915.470459 
	C550.569214,915.140991 541.565002,915.330688 532.570435,915.404785 
	C528.286194,915.440063 527.353271,917.137512 529.250854,921.048462 
	C532.625061,928.002747 542.011047,929.138000 547.113525,923.209045 
	C548.999634,921.017456 560.639160,919.500488 562.993896,921.158386 
	C564.565552,922.264832 564.007751,923.786011 563.726990,925.243896 
	C562.122009,933.577576 554.582703,939.893433 544.726074,941.159851 
	C530.017212,943.049805 519.065063,938.069336 513.382080,926.906128 
	C506.967224,914.305298 508.495911,895.278931 517.323120,886.452393 
	C526.286743,877.489380 537.478638,876.622437 548.880188,880.460449 
	C559.825684,884.145020 564.079346,893.196289 565.289124,904.007324 
	C565.454956,905.489441 565.338562,907.003113 565.351257,908.980957 
M531.244568,895.592957 
	C530.073364,897.850281 525.644104,900.890442 531.065674,902.222351 
	C536.181335,903.479065 541.880188,903.242371 547.137573,901.490356 
	C546.367249,893.569092 540.074524,891.122803 531.244568,895.592957 
z"/>
<path fill="#000000" opacity="1.000000" stroke="none" 
	d="
M335.053955,925.646362 
	C330.696198,915.702820 330.256042,905.933594 334.048889,896.161072 
	C342.861694,873.454224 372.342865,875.381958 383.282898,885.877197 
	C384.934967,887.462097 386.318756,889.441772 387.426514,891.458618 
	C391.793396,899.409241 390.657013,901.504700 381.766541,902.268066 
	C379.942322,902.424622 378.086792,902.311401 376.281433,902.571228 
	C373.306519,902.999329 371.503845,902.037354 370.866058,898.951904 
	C370.033752,894.925415 367.007812,893.032410 363.328156,892.752686 
	C359.427063,892.456055 355.707092,893.445435 353.280762,897.079895 
	C349.371063,902.936096 349.237885,916.090576 353.075073,922.015991 
	C357.780029,929.281433 366.581512,929.121155 370.758270,921.532837 
	C371.898651,919.461060 373.202789,918.616760 375.439362,918.667725 
	C378.936340,918.747620 382.439331,918.798279 385.933899,918.682922 
	C389.496490,918.565369 390.168945,920.296570 389.537628,923.408386 
	C388.235291,929.827637 384.943787,934.824280 379.161743,937.926208 
	C367.156494,944.366638 344.322754,944.046448 335.053955,925.646362 
z"/>
<path fill="#000000" opacity="1.000000" stroke="none" 
	d="
M831.326538,929.839233 
	C831.317688,940.278809 831.317505,940.270386 821.558289,940.486206 
	C820.396362,940.511841 819.234924,940.666382 818.078308,940.803772 
	C813.910217,941.298828 811.967529,939.743347 812.003113,935.266663 
	C812.135437,918.614868 812.122131,901.960632 811.972168,885.308960 
	C811.933472,881.013733 813.450928,879.202942 817.826355,879.629517 
	C820.630615,879.902954 823.499207,879.868652 826.310486,879.632568 
	C830.348877,879.293396 831.434021,881.117493 831.394958,884.903015 
	C831.242004,899.722412 831.329285,914.544312 831.326538,929.839233 
z"/>
<path fill="#000000" opacity="1.000000" stroke="none" 
	d="
M817.268738,860.370605 
	C821.466797,848.677063 821.466858,848.643677 833.471375,848.656433 
	C835.555542,848.658630 837.762329,848.007812 839.840576,849.336121 
	C840.432007,852.176819 838.202576,853.874817 837.060852,855.939575 
	C835.297363,859.128723 832.746216,861.966980 831.447144,865.310669 
	C828.807922,872.104248 823.735291,872.998413 817.489868,872.390869 
	C814.576660,872.107544 813.573914,871.075989 814.564697,868.274475 
	C815.449402,865.773132 816.275085,863.250916 817.268738,860.370605 
z"/>
<path fill="#000000" opacity="1.000000" stroke="none" 
	d="
M544.310303,566.333252 
	C554.747131,564.470032 564.733582,562.757629 573.191833,556.414185 
	C575.817932,554.444702 577.987305,555.691711 578.100647,559.101685 
	C578.236877,563.199524 576.374878,566.601318 573.314148,569.117493 
	C570.474976,571.451538 568.992676,574.362610 567.695007,577.707031 
	C564.077637,587.030090 558.850342,595.580139 554.241638,604.425049 
	C545.717773,620.783997 531.018188,624.892212 514.221069,623.675049 
	C499.142822,622.582397 487.143890,615.145447 477.792419,603.428040 
	C467.856415,590.978271 459.589325,577.618286 455.605164,561.955872 
	C454.871704,559.072571 454.485596,556.536499 456.829742,554.093201 
	C459.291016,551.527832 461.709015,552.836182 464.167847,553.737915 
	C474.302917,557.454651 483.989105,562.369873 494.658112,564.661194 
	C510.976746,568.165771 527.428589,567.017029 544.310303,566.333252 
M517.422607,592.161316 
	C506.806122,590.424866 496.913757,592.383362 487.201019,597.086243 
	C487.887787,598.448914 488.024231,598.957153 488.337585,599.306885 
	C498.394958,610.534058 526.551880,614.456421 539.347656,606.472839 
	C543.079041,604.144714 541.345581,602.029907 539.023132,600.290466 
	C532.883545,595.692261 525.799622,593.366394 517.422607,592.161316 
z"/>
<path fill="#000000" opacity="1.000000" stroke="none" 
	d="
M445.235565,470.290894 
	C451.994507,471.579529 456.326508,475.648499 459.904877,480.622162 
	C468.668640,492.803162 466.715302,514.459534 456.003632,524.951599 
	C444.334381,536.381653 421.986816,530.654175 417.095276,514.907227 
	C413.746124,504.125732 414.271057,493.592529 419.492706,483.397095 
	C424.969940,472.702698 432.657928,468.626526 445.235565,470.290894 
M443.546844,491.032410 
	C443.610596,492.179108 443.417786,493.416199 443.784210,494.456299 
	C445.101685,498.196289 448.868011,499.787231 452.251770,498.043030 
	C455.644714,496.294159 456.481171,493.386353 454.991394,490.044403 
	C453.591705,486.904541 449.049286,486.063507 445.886841,488.189301 
	C445.084869,488.728394 444.523560,489.625519 443.546844,491.032410 
z"/>
<path fill="#000000" opacity="1.000000" stroke="none" 
	d="
M607.021606,473.059998 
	C617.040405,486.993347 613.474731,509.087860 601.055359,519.358398 
	C588.248535,529.949341 567.844788,520.658386 564.667175,507.379578 
	C562.311218,497.534393 561.011536,487.833496 565.684692,478.193573 
	C574.281250,460.460449 593.789673,457.837677 607.021606,473.059998 
M595.702515,481.660889 
	C590.255005,483.630066 588.330872,486.211365 589.983398,489.641418 
	C591.198059,492.162567 593.085876,494.232880 596.220093,493.473206 
	C599.241333,492.740967 602.120483,490.987518 602.362122,487.709717 
	C602.634705,484.013306 599.976440,482.132233 595.702515,481.660889 
z"/>
<path fill="#000000" opacity="1.000000" stroke="none" 
	d="
M560.959656,529.640991 
	C561.553833,540.385376 557.798401,546.758362 548.941345,550.020386 
	C544.994385,551.474121 540.808105,552.944031 537.323059,549.090149 
	C537.982971,546.742554 539.718750,546.828979 541.063232,546.377869 
	C545.397217,544.923767 547.880005,541.787537 549.135925,537.567505 
	C550.397827,533.327454 548.891479,530.397217 544.621399,529.102356 
	C539.903442,527.671753 535.091919,527.994751 530.314636,528.897339 
	C527.349670,529.457458 524.502625,529.726868 523.506348,525.964844 
	C522.526184,522.263794 524.636536,520.176697 527.803284,519.255066 
	C536.670776,516.674316 545.466980,516.501404 554.068481,520.538574 
	C557.857849,522.317200 559.909973,525.307922 560.959656,529.640991 
z"/>
</svg>